<svg width="100" height="32" viewBox="0 0 100 32" fill="none" xmlns="http://www.w3.org/2000/svg">
<path d="M17.0195 12.6013C15.6888 12.6013 11.4049 20.0569 12.0586 21.3156C12.7122 22.5744 21.3346 22.5606 21.9804 21.3156C22.6263 20.0706 18.3502 12.6019 17.0195 12.6013Z" fill="url(#paint0_linear)"/>
<path d="M17.0195 1.45624C13.0098 1.45624 0.102207 23.9206 2.07031 27.7144C4.03841 31.5081 30.0221 31.4644 31.9688 27.7144C33.9154 23.9644 21.0286 1.45624 17.0195 1.45624ZM26.8164 24.4225C25.541 26.8806 8.51692 26.9081 7.22656 24.4225C5.93619 21.9369 14.3945 7.21749 17.0215 7.21749C19.6484 7.21749 28.0918 21.9637 26.8164 24.4225Z" fill="url(#paint1_linear)"/>
<path d="M39.0911 21.9219C38.442 21.4896 37.9274 20.8962 37.6022 20.205C37.5412 20.1169 37.5075 20.0139 37.5052 19.9081C37.5041 19.8368 37.5202 19.7662 37.5521 19.7018C37.5841 19.6374 37.6311 19.581 37.6895 19.5369C37.7983 19.4426 37.9393 19.3897 38.0859 19.3881C38.2917 19.3881 38.4727 19.4938 38.627 19.7038C38.8528 20.2135 39.2209 20.6535 39.6908 20.975C40.1461 21.2879 40.6933 21.4538 41.2533 21.4488C42.1434 21.4488 42.8655 21.1858 43.4193 20.66C43.9731 20.1342 44.2502 19.4442 44.2507 18.59V9.9375C44.2486 9.86292 44.263 9.78876 44.2929 9.71991C44.3229 9.65107 44.3677 9.58911 44.4245 9.53813C44.5453 9.43139 44.7051 9.37478 44.8691 9.38063C44.949 9.37701 45.0288 9.38912 45.1036 9.41621C45.1783 9.4433 45.2466 9.48479 45.304 9.53813C45.3583 9.59047 45.4009 9.65288 45.4292 9.72154C45.4575 9.7902 45.471 9.86369 45.4687 9.9375V18.5875C45.4793 19.3021 45.2924 20.0067 44.9271 20.6294C44.5754 21.2273 44.0568 21.7191 43.4297 22.0494C42.7934 22.3915 42.069 22.5625 41.2565 22.5625C40.4829 22.57 39.7261 22.3461 39.0911 21.9219Z" fill="white"/>
<path d="M56.9961 17.4669C56.9426 17.5177 56.8791 17.5578 56.8094 17.5849C56.7397 17.612 56.6651 17.6257 56.5899 17.625H49.2813C49.2813 18.3675 49.439 19.0325 49.7546 19.62C50.0599 20.1975 50.5291 20.6803 51.1081 21.0125C51.6945 21.3534 52.3874 21.5236 53.1869 21.5232C53.7645 21.5324 54.3356 21.4049 54.8496 21.1519C55.3124 20.926 55.7158 20.6023 56.0293 20.205C56.1403 20.1056 56.284 20.0466 56.4356 20.0382C56.5667 20.0445 56.6908 20.0974 56.7836 20.1865C56.8765 20.2757 56.9316 20.3947 56.9382 20.5207C56.9347 20.595 56.9157 20.6678 56.8821 20.7349C56.8485 20.8019 56.8012 20.8617 56.7428 20.9107C56.3147 21.4052 55.7847 21.8095 55.1862 22.0982C54.575 22.4042 53.8957 22.5635 53.2064 22.5625C52.2138 22.5625 51.337 22.3584 50.5762 21.95C49.8257 21.551 49.2088 20.9553 48.7975 20.2325C48.3726 19.4967 48.1599 18.6461 48.1595 17.6807C48.1595 16.6657 48.3689 15.7777 48.7878 15.0169C49.2066 14.2561 49.7641 13.6744 50.4603 13.2719C51.1292 12.8773 51.8991 12.6685 52.6843 12.6688C53.443 12.6652 54.1906 12.8435 54.8594 13.1875C55.5442 13.5415 56.1156 14.0679 56.5124 14.71C56.9382 15.3767 57.1573 16.1684 57.1699 17.085C57.171 17.1569 57.156 17.2282 57.126 17.294C57.096 17.3599 57.0517 17.4188 56.9961 17.4669ZM50.6055 14.4875C49.9675 14.9825 49.5582 15.695 49.3776 16.625H55.9714V16.4763C55.9188 15.9484 55.7181 15.444 55.3906 15.0169C55.0767 14.6092 54.6613 14.2836 54.1823 14.07C53.7142 13.8571 53.2029 13.7461 52.6849 13.745C51.9366 13.745 51.2435 13.9925 50.6055 14.4875Z" fill="white"/>
<path d="M60.6797 22.2188C60.5985 22.2986 60.4941 22.3532 60.3802 22.3755C60.2663 22.3978 60.148 22.3867 60.0407 22.3438C59.9334 22.3008 59.842 22.228 59.7784 22.1346C59.7147 22.0412 59.6817 21.9316 59.6836 21.82V9.19503C59.6836 9.04733 59.7447 8.90569 59.8535 8.80126C59.9623 8.69682 60.1098 8.63815 60.2637 8.63815C60.4175 8.63815 60.5651 8.69682 60.6739 8.80126C60.7826 8.90569 60.8438 9.04733 60.8438 9.19503V21.82C60.8462 21.8937 60.8329 21.9671 60.8047 22.0357C60.7764 22.1043 60.7339 22.1666 60.6797 22.2188Z" fill="white"/>
<path d="M65.127 22.2188C65.0457 22.2986 64.9414 22.3532 64.8275 22.3755C64.7136 22.3978 64.5953 22.3867 64.488 22.3438C64.3807 22.3008 64.2893 22.228 64.2256 22.1346C64.162 22.0412 64.129 21.9316 64.1309 21.82V9.19503C64.1309 9.04733 64.192 8.90569 64.3008 8.80126C64.4096 8.69682 64.5571 8.63815 64.711 8.63815C64.8648 8.63815 65.0123 8.69682 65.1211 8.80126C65.2299 8.90569 65.291 9.04733 65.291 9.19503V21.82C65.2935 21.8937 65.2802 21.9671 65.2519 22.0357C65.2237 22.1043 65.1812 22.1666 65.127 22.2188Z" fill="white"/>
<path d="M75.9544 12.8819C76.0087 12.9342 76.0513 12.9966 76.0796 13.0653C76.1079 13.134 76.1214 13.2075 76.1191 13.2813V21.4688C76.1191 22.4454 75.9193 23.2807 75.5195 23.9744C75.1409 24.6474 74.5621 25.1968 73.8568 25.5525C73.1476 25.9113 72.3483 26.0907 71.459 26.0907C70.9479 26.0941 70.4383 26.0379 69.9414 25.9232C69.5288 25.8349 69.1333 25.6847 68.7695 25.4782C68.4987 25.3169 68.3633 25.1373 68.3633 24.9394C68.3707 24.8759 68.3838 24.8132 68.4023 24.7519C68.4324 24.6405 68.5014 24.5423 68.5977 24.4738C68.6813 24.4137 68.7829 24.3811 68.8874 24.3807C68.9681 24.3815 69.0475 24.4006 69.1191 24.4363C69.9438 24.8692 70.7303 25.0859 71.4785 25.0863C72.5484 25.0863 73.3961 24.7646 74.0215 24.1213C74.6469 23.4779 74.9594 22.5992 74.959 21.485V20.8363C74.6228 21.3673 74.1414 21.7996 73.5671 22.0863C72.9618 22.4018 72.2831 22.5648 71.5944 22.56C70.4733 22.56 69.6226 22.2382 69.0423 21.5944C68.462 20.9507 68.1719 20.0784 68.1719 18.9775V13.2813C68.1719 13.1336 68.233 12.9919 68.3418 12.8875C68.4506 12.7831 68.5981 12.7244 68.752 12.7244C68.9058 12.7244 69.0533 12.7831 69.1621 12.8875C69.2709 12.9919 69.332 13.1336 69.332 13.2813V18.8125C69.332 19.7038 69.5352 20.3784 69.9414 20.8363C70.3477 21.2942 70.9824 21.5234 71.8457 21.5238C72.3773 21.5229 72.8998 21.3919 73.3639 21.1432C73.8295 20.9052 74.2277 20.562 74.5241 20.1432C74.8059 19.7532 74.9576 19.2903 74.959 18.8157V13.2813C74.9596 13.1708 74.994 13.063 75.0581 12.9712C75.1221 12.8794 75.2128 12.8078 75.319 12.7652C75.4251 12.7226 75.542 12.711 75.655 12.7317C75.768 12.7525 75.8721 12.8047 75.9544 12.8819Z" fill="white"/>
<path d="M81.6393 10.0882C81.4132 10.3482 81.3003 10.7071 81.3008 11.165V13.0769H83.4668C83.608 13.0766 83.7436 13.1301 83.8437 13.2257C83.8956 13.2738 83.9369 13.3315 83.9651 13.3953C83.9933 13.4591 84.0078 13.5276 84.0078 13.5969C84.0078 13.6662 83.9933 13.7348 83.9651 13.7986C83.9369 13.8623 83.8956 13.92 83.8437 13.9682C83.7433 14.0633 83.6079 14.1166 83.4668 14.1163H81.3021V21.82C81.3021 21.9677 81.241 22.1094 81.1322 22.2138C81.0234 22.3182 80.8758 22.3769 80.722 22.3769C80.5682 22.3769 80.4206 22.3182 80.3118 22.2138C80.203 22.1094 80.1419 21.9677 80.1419 21.82V14.1163H78.7305C78.6581 14.1179 78.5861 14.1047 78.5194 14.0776C78.4527 14.0504 78.3929 14.0099 78.3438 13.9588C78.2446 13.8624 78.1891 13.7324 78.1895 13.5969C78.1858 13.5266 78.1977 13.4564 78.2243 13.3908C78.2509 13.3252 78.2916 13.2657 78.3438 13.2163C78.4485 13.1227 78.5875 13.0726 78.7305 13.0769H80.1419V11.165C80.1419 10.3859 80.3772 9.78171 80.8477 9.35255C81.3181 8.92338 81.9475 8.71005 82.7357 8.71255C83.0779 8.70961 83.418 8.76288 83.7415 8.87005C84.051 8.97546 84.2055 9.14567 84.2051 9.38067C84.2071 9.44938 84.1944 9.51776 84.1679 9.5816C84.1413 9.64544 84.1015 9.7034 84.0508 9.75192C84.0063 9.79813 83.9525 9.83512 83.8926 9.86059C83.8327 9.88607 83.768 9.89949 83.7025 9.90005C83.5561 9.89387 83.4121 9.86254 83.2773 9.80755C83.0574 9.74329 82.8299 9.70591 82.6003 9.6963C82.1849 9.69796 81.8646 9.82859 81.6393 10.0882ZM85.9245 11.3044C85.7819 11.1869 85.7116 11.0163 85.7116 10.7938V10.6063C85.7116 10.3838 85.7856 10.2136 85.9336 10.0957C86.0816 9.97776 86.2847 9.91901 86.543 9.91942C87.0586 9.91942 87.3164 10.1486 87.3164 10.6069V10.7944C87.3164 11.0169 87.2513 11.1875 87.1133 11.305C86.9752 11.4225 86.7812 11.4813 86.5234 11.4813C86.2656 11.4813 86.0638 11.4219 85.9245 11.3044ZM86.9394 22.2188C86.8582 22.2986 86.7539 22.3532 86.64 22.3755C86.5261 22.3978 86.4078 22.3868 86.3005 22.3438C86.1932 22.3009 86.1018 22.228 86.0381 22.1346C85.9744 22.0412 85.9414 21.9316 85.9433 21.82V13.2813C85.9433 13.2082 85.9584 13.1358 85.9875 13.0682C86.0167 13.0006 86.0594 12.9392 86.1132 12.8875C86.1671 12.8358 86.2311 12.7948 86.3014 12.7668C86.3718 12.7388 86.4472 12.7244 86.5234 12.7244C86.5996 12.7244 86.675 12.7388 86.7454 12.7668C86.8158 12.7948 86.8797 12.8358 86.9336 12.8875C86.9875 12.9392 87.0302 13.0006 87.0593 13.0682C87.0885 13.1358 87.1035 13.2082 87.1035 13.2813V21.82C87.1057 21.8939 87.0921 21.9673 87.0635 22.0359C87.0349 22.1045 86.9921 22.1667 86.9375 22.2188H86.9394Z" fill="white"/>
<path d="M97.4173 13.68C97.9781 14.355 98.2585 15.2492 98.2585 16.3625V21.82C98.2606 21.8945 98.2463 21.9686 98.2163 22.0374C98.1863 22.1061 98.1414 22.168 98.0846 22.2188C97.9764 22.3211 97.8303 22.378 97.6784 22.3769C97.6016 22.3792 97.525 22.3664 97.4535 22.3393C97.3821 22.3121 97.3171 22.2712 97.2628 22.219C97.2084 22.1668 97.1658 22.1045 97.1375 22.0359C97.1092 21.9672 97.0959 21.8938 97.0983 21.82V16.4181C97.0983 15.6136 96.8889 14.9608 96.4701 14.46C96.0512 13.9592 95.4034 13.7092 94.5267 13.71C93.9837 13.7123 93.4489 13.837 92.9652 14.074C92.4816 14.311 92.0627 14.6536 91.7422 15.0744C91.4415 15.4637 91.2788 15.9353 91.278 16.42V21.8219C91.278 21.9696 91.2169 22.1112 91.1081 22.2157C90.9993 22.3201 90.8517 22.3788 90.6979 22.3788C90.5441 22.3788 90.3965 22.3201 90.2877 22.2157C90.1789 22.1112 90.1178 21.9696 90.1178 21.8219V13.5038C90.1178 13.3561 90.1789 13.2144 90.2877 13.11C90.3965 13.0056 90.5441 12.9469 90.6979 12.9469C90.8517 12.9469 90.9993 13.0056 91.1081 13.11C91.2169 13.2144 91.278 13.3561 91.278 13.5038V14.525C91.6252 13.9929 92.1243 13.5504 92.7754 13.1975C93.3835 12.856 94.0742 12.6737 94.7786 12.6688C95.977 12.6688 96.8566 13.0058 97.4173 13.68Z" fill="white"/>
<defs>
<linearGradient id="paint0_linear" x1="7.17771" y1="13.3313" x2="31.7776" y2="28.1255" gradientUnits="userSpaceOnUse">
<stop stop-color="#AA5CC3"/>
<stop offset="1" stop-color="#00A4DC"/>
</linearGradient>
<linearGradient id="paint1_linear" x1="7.17773" y1="13.3312" x2="31.7776" y2="28.1255" gradientUnits="userSpaceOnUse">
<stop stop-color="#AA5CC3"/>
<stop offset="1" stop-color="#00A4DC"/>
</linearGradient>
</defs>
</svg>
