<svg width="152" height="32" fill="none" xmlns="http://www.w3.org/2000/svg"><path d="M17.02 12.601c-1.331 0-5.615 7.456-4.961 8.715.653 1.258 9.276 1.245 9.921 0 .646-1.245-3.63-8.714-4.96-8.715z" fill="url(#a)"/><path d="M17.02 1.456c-4.01 0-16.918 22.465-14.95 26.258 1.968 3.794 27.952 3.75 29.899 0 1.946-3.75-10.94-26.258-14.95-26.258zm9.796 22.966c-1.275 2.459-18.3 2.486-19.59 0-1.29-2.485 7.169-17.205 9.796-17.205 2.626 0 11.07 14.747 9.794 17.206z" fill="url(#b)"/><path d="M41.775 22.184c-.76 0-1.445-.209-2.057-.625a4.207 4.207 0 0 1-1.414-1.708.55.55 0 0 1-.092-.294c0-.146.055-.269.165-.367a.61.61 0 0 1 .386-.147c.196 0 .367.104.514.312.233.527.57.95 1.01 1.268.441.306.937.459 1.488.459.845 0 1.53-.257 2.057-.772.526-.526.79-1.212.79-2.056V9.694c0-.159.055-.287.165-.385.11-.11.25-.166.422-.166s.306.055.404.166c.11.098.166.226.166.385v8.558c0 .747-.172 1.42-.515 2.02-.343.6-.82 1.072-1.432 1.415-.6.33-1.286.496-2.057.496zm15.12-5.418a.529.529 0 0 1-.166.386.562.562 0 0 1-.386.146h-6.942c0 .735.147 1.396.441 1.984a3.567 3.567 0 0 0 1.286 1.377c.563.33 1.224.496 1.983.496.588 0 1.114-.122 1.58-.367a3.255 3.255 0 0 0 1.12-.937c.135-.11.263-.165.386-.165.122 0 .232.049.33.147a.457.457 0 0 1 .147.33c0 .135-.061.264-.184.386-.391.478-.887.87-1.487 1.175a3.998 3.998 0 0 1-1.873.46c-.943 0-1.776-.202-2.498-.606a4.311 4.311 0 0 1-1.69-1.69c-.404-.735-.606-1.58-.606-2.534 0-1.004.196-1.88.588-2.627.404-.759.937-1.334 1.598-1.726a3.983 3.983 0 0 1 2.112-.606c.734 0 1.42.171 2.057.514a4.048 4.048 0 0 1 1.579 1.506c.404.661.612 1.445.624 2.35zm-4.261-3.306c-.71 0-1.372.245-1.984.735-.6.49-.985 1.194-1.157 2.112h6.263v-.147a2.842 2.842 0 0 0-.551-1.433 2.87 2.87 0 0 0-1.157-.936 3.196 3.196 0 0 0-1.414-.33zm7.744 7.989a.55.55 0 0 1-.166.404.522.522 0 0 1-.385.147.587.587 0 0 1-.404-.147.587.587 0 0 1-.147-.404V8.961c0-.16.049-.288.147-.386a.55.55 0 0 1 .404-.165c.159 0 .287.055.385.165.11.098.166.227.166.386v12.488zm4.232 0a.55.55 0 0 1-.165.404.522.522 0 0 1-.386.147.586.586 0 0 1-.404-.147.586.586 0 0 1-.147-.404V8.961c0-.16.05-.288.147-.386a.55.55 0 0 1 .404-.165c.16 0 .288.055.386.165.11.098.165.227.165.386v12.488zm9.749-8.999c.159 0 .288.055.386.165.11.098.165.227.165.386v8.1c0 .966-.19 1.793-.57 2.478a3.805 3.805 0 0 1-1.579 1.561c-.673.355-1.432.533-2.277.533-.514 0-.998-.055-1.451-.165a3.832 3.832 0 0 1-1.102-.441c-.257-.16-.386-.337-.386-.533 0-.024.013-.085.037-.183a.502.502 0 0 1 .184-.276.465.465 0 0 1 .496-.037c.783.43 1.53.643 2.24.643 1.016 0 1.818-.318 2.406-.955.6-.636.9-1.506.9-2.607v-.643c-.306.514-.747.93-1.322 1.248-.576.307-1.2.46-1.874.46-1.065 0-1.873-.319-2.424-.955-.55-.637-.826-1.5-.826-2.59v-5.638c0-.16.049-.288.147-.386a.55.55 0 0 1 .404-.165c.159 0 .287.055.385.165.11.098.166.227.166.386v5.473c0 .881.19 1.549.569 2.002.392.453.998.68 1.818.68.502 0 .98-.123 1.433-.368a3.092 3.092 0 0 0 1.101-.992 2.32 2.32 0 0 0 .423-1.322V13c0-.16.049-.288.147-.386a.55.55 0 0 1 .404-.165zM88.33 9.144c1.175 0 2.161.294 2.957.882.808.575 1.408 1.353 1.8 2.332.404.967.606 2.039.606 3.214 0 1.212-.202 2.302-.606 3.27-.392.966-.992 1.738-1.8 2.313-.796.563-1.782.845-2.957.845h-4.683a.587.587 0 0 1-.404-.147.587.587 0 0 1-.147-.404V9.695c0-.159.049-.287.147-.385a.55.55 0 0 1 .404-.166h4.683zm-.184 11.772c1.47 0 2.565-.49 3.288-1.469.722-.991 1.083-2.283 1.083-3.875 0-.991-.153-1.885-.459-2.681-.306-.808-.79-1.451-1.45-1.928-.65-.49-1.47-.735-2.462-.735h-3.893v10.688h3.893zm15.952-4.15a.526.526 0 0 1-.166.386.56.56 0 0 1-.385.146h-6.942c0 .735.147 1.396.44 1.984a3.566 3.566 0 0 0 1.286 1.377c.563.33 1.224.496 1.984.496.587 0 1.114-.122 1.579-.367a3.25 3.25 0 0 0 1.12-.937c.135-.11.263-.165.386-.165.122 0 .233.049.33.147a.457.457 0 0 1 .147.33c0 .135-.061.264-.183.386-.392.478-.888.87-1.488 1.175a3.998 3.998 0 0 1-1.873.46c-.943 0-1.775-.202-2.498-.606a4.312 4.312 0 0 1-1.69-1.69c-.403-.735-.605-1.58-.605-2.534 0-1.004.196-1.88.587-2.627.404-.759.937-1.334 1.598-1.726a3.983 3.983 0 0 1 2.112-.606c.735 0 1.42.171 2.057.514a4.047 4.047 0 0 1 1.579 1.506c.404.661.613 1.445.625 2.35zm-4.261-3.306c-.71 0-1.371.245-1.983.735-.6.49-.986 1.194-1.157 2.112h6.262v-.147a2.841 2.841 0 0 0-.551-1.433 2.87 2.87 0 0 0-1.157-.936 3.194 3.194 0 0 0-1.414-.33zm5.999 7.052c-.098-.159-.147-.293-.147-.404 0-.159.08-.281.239-.367a.399.399 0 0 1 .294-.11.56.56 0 0 1 .404.183c.722.956 1.683 1.433 2.883 1.433.588 0 1.096-.135 1.525-.404.44-.282.661-.686.661-1.212 0-.514-.202-.9-.606-1.157-.404-.257-.967-.478-1.69-.661-1.016-.257-1.812-.588-2.387-.992-.576-.416-.864-1.022-.864-1.818 0-.502.141-.949.423-1.34a2.764 2.764 0 0 1 1.139-.937c.489-.22 1.04-.331 1.652-.331.527 0 1.053.104 1.58.312.539.196.998.514 1.377.955.11.086.166.208.166.367a.507.507 0 0 1-.184.386.491.491 0 0 1-.331.11.456.456 0 0 1-.33-.147 2.903 2.903 0 0 0-1.047-.752 3.305 3.305 0 0 0-1.304-.258c-.575 0-1.071.135-1.488.404-.404.27-.606.674-.606 1.213.025.49.245.863.661 1.12.429.257 1.053.49 1.874.698.636.159 1.163.336 1.579.532.416.196.753.472 1.01.827.27.355.404.826.404 1.414 0 .796-.318 1.432-.955 1.91-.636.465-1.426.698-2.369.698-1.494 0-2.681-.557-3.563-1.672zm16.579.515a.61.61 0 0 1 .166.422c0 .16-.068.294-.202.404-.123.098-.239.147-.349.147a.504.504 0 0 1-.404-.202l-4.059-4.297-1.377 1.175v2.773c0 .16-.055.294-.166.404a.52.52 0 0 1-.385.147.587.587 0 0 1-.404-.147.586.586 0 0 1-.147-.404V8.961c0-.16.049-.288.147-.386a.55.55 0 0 1 .404-.165.49.49 0 0 1 .385.165.49.49 0 0 1 .166.386v8.374l5.307-4.573a.505.505 0 0 1 .386-.183c.135 0 .257.06.367.183a.51.51 0 0 1 .165.368c0 .146-.067.287-.202.422l-3.783 3.214 3.985 4.26zm4.227-7.346v6.152c0 .465.086.784.257.955.172.16.398.239.68.239.073 0 .165-.013.275-.037a.887.887 0 0 1 .258-.055c.11 0 .202.049.275.147.086.085.129.19.129.312 0 .171-.098.318-.294.44-.196.11-.429.166-.698.166-.331 0-.625-.03-.882-.092-.257-.061-.508-.245-.753-.55-.232-.307-.349-.797-.349-1.47v-6.207h-1.34a.563.563 0 0 1-.386-.147.498.498 0 0 1-.147-.368c0-.147.049-.269.147-.367a.563.563 0 0 1 .386-.147h1.34v-2.038c0-.16.049-.288.147-.386a.551.551 0 0 1 .404-.165.49.49 0 0 1 .386.165c.11.098.165.226.165.386v2.038h1.837c.135 0 .251.055.349.165a.51.51 0 0 1 .018.735.537.537 0 0 1-.367.129h-1.837zm12.966 3.618c0 .918-.202 1.75-.606 2.497a4.542 4.542 0 0 1-1.671 1.763c-.71.416-1.5.625-2.369.625-.87 0-1.659-.209-2.37-.625a4.542 4.542 0 0 1-1.671-1.763c-.404-.747-.606-1.58-.606-2.497 0-.919.202-1.751.606-2.498a4.542 4.542 0 0 1 1.671-1.763 4.5 4.5 0 0 1 2.37-.643c.869 0 1.659.214 2.369.643a4.542 4.542 0 0 1 1.671 1.763c.404.747.606 1.58.606 2.498zm-1.102 0c0-.735-.153-1.396-.459-1.984a3.404 3.404 0 0 0-1.286-1.377 3.28 3.28 0 0 0-1.799-.515 3.28 3.28 0 0 0-1.8.515c-.539.33-.968.79-1.286 1.377-.306.588-.459 1.249-.459 1.984 0 .722.153 1.377.459 1.965a3.716 3.716 0 0 0 1.286 1.395 3.37 3.37 0 0 0 1.8.496c.661 0 1.261-.165 1.799-.496.551-.33.98-.79 1.286-1.377.306-.588.459-1.249.459-1.983zm7.819-4.757a4.05 4.05 0 0 1 2.203.624c.662.404 1.176.974 1.543 1.708.38.723.569 1.537.569 2.443 0 .918-.189 1.745-.569 2.48a4.243 4.243 0 0 1-1.543 1.707 3.96 3.96 0 0 1-2.185.625c-.71 0-1.365-.166-1.965-.496a4.062 4.062 0 0 1-1.414-1.36v4.85a.49.49 0 0 1-.166.385.49.49 0 0 1-.385.165.55.55 0 0 1-.404-.165.521.521 0 0 1-.147-.386V13.148c0-.16.049-.294.147-.404a.55.55 0 0 1 .404-.165.49.49 0 0 1 .385.165c.111.11.166.245.166.404v1.249a3.42 3.42 0 0 1 1.377-1.36c.6-.33 1.261-.495 1.984-.495zm-.092 8.558c.636 0 1.206-.16 1.708-.477.514-.331.912-.784 1.193-1.36.294-.575.441-1.224.441-1.946 0-.71-.147-1.347-.441-1.91a3.176 3.176 0 0 0-1.193-1.34 3.038 3.038 0 0 0-1.708-.497c-.649 0-1.231.16-1.745.478a3.185 3.185 0 0 0-1.194 1.34c-.281.564-.422 1.207-.422 1.929s.141 1.371.422 1.947a3.31 3.31 0 0 0 1.194 1.359 3.247 3.247 0 0 0 1.745.477z" fill="#fff"/><defs><linearGradient id="a" x1="7.178" y1="13.331" x2="31.778" y2="28.125" gradientUnits="userSpaceOnUse"><stop stop-color="#AA5CC3"/><stop offset="1" stop-color="#00A4DC"/></linearGradient><linearGradient id="b" x1="7.178" y1="13.331" x2="31.778" y2="28.125" gradientUnits="userSpaceOnUse"><stop stop-color="#AA5CC3"/><stop offset="1" stop-color="#00A4DC"/></linearGradient></defs></svg>